<?xml version="1.0" encoding="UTF-8" standalone="no"?>
<svg
   xmlns:dc="http://purl.org/dc/elements/1.1/"
   xmlns:cc="http://creativecommons.org/ns#"
   xmlns:rdf="http://www.w3.org/1999/02/22-rdf-syntax-ns#"
   xmlns:svg="http://www.w3.org/2000/svg"
   xmlns="http://www.w3.org/2000/svg"
   xmlns:sodipodi="http://sodipodi.sourceforge.net/DTD/sodipodi-0.dtd"
   xmlns:inkscape="http://www.inkscape.org/namespaces/inkscape"
   width="54.457047mm"
   height="50.090965mm"
   viewBox="0 0 54.457047 50.090966"
   version="1.1"
   id="svg8"
   inkscape:version="1.0.2 (e86c870879, 2021-01-15)"
   sodipodi:docname="logo_pact.svg">
  <defs
     id="defs2" />
  <sodipodi:namedview
     id="base"
     pagecolor="#ffffff"
     bordercolor="#666666"
     borderopacity="1.0"
     inkscape:pageopacity="0.0"
     inkscape:pageshadow="2"
     inkscape:zoom="4.8330821"
     inkscape:cx="102.91095"
     inkscape:cy="94.660092"
     inkscape:document-units="mm"
     inkscape:current-layer="layer1"
     inkscape:document-rotation="0"
     showgrid="false"
     fit-margin-top="0"
     fit-margin-left="0"
     fit-margin-right="0"
     fit-margin-bottom="0"
     inkscape:window-width="1920"
     inkscape:window-height="1136"
     inkscape:window-x="1920"
     inkscape:window-y="27"
     inkscape:window-maximized="1" />
  <metadata
     id="metadata5">
    <rdf:RDF>
      <cc:Work
         rdf:about="">
        <dc:format>image/svg+xml</dc:format>
        <dc:type
           rdf:resource="http://purl.org/dc/dcmitype/StillImage" />
        <dc:title />
      </cc:Work>
    </rdf:RDF>
  </metadata>
  <g
     inkscape:label="Calque 1"
     inkscape:groupmode="layer"
     id="layer1"
     transform="translate(56.166156,-229.10014)">
    <g
       id="g873">
      <path
         style="fill:#d7022c;fill-opacity:1;fill-rule:evenodd;stroke:#bf0f35;stroke-width:0.0799999;stroke-linecap:butt;stroke-linejoin:miter;stroke-miterlimit:4;stroke-dasharray:none;stroke-opacity:1"
         d="m -16.977662,258.78246 c 5.940096,-1.65648 7.8816155,-7.75236 8.8150796,-13.20598 0,0 1.6478264,3.55859 2.075099,8.27172 l 4.3331292,-4.27365 c 0,0 -2.6243945,-8.72486 -8.4504458,-13.71892 0,0 -2.002139,5.21097 -6.882139,9.15869 l 1.271757,3.33099 c 3.453653,-2.20867 3.956774,-2.94163 3.956774,-2.94163 l 0.03924,0.01 c -0.32094,3.48487 -1.803649,7.09895 -3.701677,8.57574 l -1.456796,4.79441 z"
         id="path1733"
         sodipodi:nodetypes="cccccccccccc" />
      <path
         style="fill:#d7022c;fill-opacity:1;fill-rule:evenodd;stroke:#bf0f35;stroke-width:0.0799999;stroke-linecap:butt;stroke-linejoin:miter;stroke-miterlimit:4;stroke-dasharray:none;stroke-opacity:1"
         d="m -26.906931,237.55795 c -0.854783,-3.28229 -4.000402,-4.35511 -6.814598,-4.87092 0,0 1.836313,-0.91053 4.268405,-1.14661 l -2.205304,-2.39436 c 0,0 -4.502234,1.45018 -7.079299,4.66945 0,0 2.688989,1.10631 4.726105,3.80282 l 1.718875,-0.70267 c -1.139727,-1.90843 -1.517956,-2.18642 -1.517956,-2.18642 l 0.0048,-0.0222 c 1.798279,0.17747 3.663229,0.9966 4.425287,2.04539 l 2.47403,0.805 z"
         id="path2560"
         sodipodi:nodetypes="cccccccccccc" />
      <path
         style="fill:#d7022c;fill-opacity:1;fill-rule:evenodd;stroke:#bf0f35;stroke-width:0.0799999;stroke-linecap:butt;stroke-linejoin:miter;stroke-miterlimit:4;stroke-dasharray:none;stroke-opacity:1"
         d="m -44.843191,247.55123 c -4.400245,1.13299 -5.838453,5.30244 -6.529921,9.03262 0,0 -1.220665,-2.43401 -1.53717,-5.65773 l -3.209838,2.92313 c 0,0 1.944066,5.96765 6.25981,9.3835 0,0 1.483128,-3.56421 5.098066,-6.26443 L -45.704318,254.69 c -2.558356,1.51069 -2.931063,2.01208 -2.931063,2.01208 l -0.02921,-0.006 c 0.23776,-2.3836 1.336091,-4.85555 2.742077,-5.86567 l 1.079155,-3.27931 z"
         id="path1733-3"
         sodipodi:nodetypes="cccccccccccc" />
      <path
         style="fill:#d7022c;fill-opacity:1;fill-rule:evenodd;stroke:#bf0f35;stroke-width:0.0799999;stroke-linecap:butt;stroke-linejoin:miter;stroke-miterlimit:4;stroke-dasharray:none;stroke-opacity:1"
         d="m -36.994644,265.84884 c 1.478442,5.18855 6.91915,6.88443 11.786622,7.69978 0,0 -3.176116,1.43935 -7.382689,1.81255 l 3.814321,3.78489 c 0,0 7.787125,-2.29236 12.244443,-7.38126 0,0 -4.650907,-1.74883 -8.174335,-6.0114 l -2.97298,1.11086 c 1.971287,3.01669 2.625471,3.45617 2.625471,3.45617 l -0.0086,0.0343 c -3.110321,-0.28033 -6.33597,-1.57546 -7.654034,-3.23333 l -4.279114,-1.27249 z"
         id="path1733-6"
         sodipodi:nodetypes="cccccccccccc" />
      <path
         id="circle1731"
         style="fill:#d7022c;fill-opacity:1;stroke:#bf0f35;stroke-width:0.302362;stroke-linecap:square;stroke-linejoin:round;stroke-miterlimit:4;stroke-dasharray:none;stroke-opacity:1;paint-order:stroke fill markers"
         d="M 96.271484 28.513672 A 57.882072 57.882072 0 0 0 38.464844 86.394531 A 57.882072 57.882072 0 0 0 96.347656 144.27734 A 57.882072 57.882072 0 0 0 154.22852 86.394531 A 57.882072 57.882072 0 0 0 96.347656 28.513672 A 57.882072 57.882072 0 0 0 96.271484 28.513672 z M 92.191406 43.785156 A 38.455465 38.455465 0 0 1 130.64844 82.240234 A 38.455465 38.455465 0 0 1 92.191406 120.69531 A 38.455465 38.455465 0 0 1 53.736328 82.240234 A 38.455465 38.455465 0 0 1 92.191406 43.785156 z "
         transform="matrix(0.26458333,0,0,0.26458333,-56.166156,229.10014)" />
      <path
         style="fill:#d7022c;fill-opacity:1;fill-rule:evenodd;stroke:none;stroke-width:0.264583px;stroke-linecap:butt;stroke-linejoin:miter;stroke-opacity:1"
         d="m -45.863207,254.98309 0.310939,-0.0832 0.564065,2.10514 -0.371041,0.2143 -0.57429,-2.14324 z"
         id="path2593" />
      <path
         style="fill:#d7022c;fill-opacity:1;fill-rule:evenodd;stroke:none;stroke-width:0.264583px;stroke-linecap:butt;stroke-linejoin:miter;stroke-opacity:1"
         d="m -45.300571,248.03802 -0.342908,-0.10985 -0.685015,2.62714 0.405979,0.27462 0.697428,-2.6746 z"
         id="path2593-7" />
      <path
         style="fill:#d7022c;fill-opacity:1;fill-rule:evenodd;stroke:none;stroke-width:0.264583px;stroke-linecap:butt;stroke-linejoin:miter;stroke-opacity:1"
         d="m -34.355934,237.12764 0.0044,-0.3177 1.677308,-0.27653 0.153882,0.39548 -1.779755,0.28383 z"
         id="path2593-5"
         sodipodi:nodetypes="cccccc" />
      <path
         style="fill:#d7022c;fill-opacity:1;fill-rule:evenodd;stroke:none;stroke-width:0.264583px;stroke-linecap:butt;stroke-linejoin:miter;stroke-opacity:1"
         d="m -29.292985,236.37594 -0.03432,0.50987 2.147941,0.39307 c 0.0861,-0.0473 -0.126388,-0.4538 -0.126388,-0.4538 l -1.898806,-0.45393 z"
         id="path2593-3"
         sodipodi:nodetypes="cccccc" />
      <path
         style="fill:#d7022c;fill-opacity:1;fill-rule:evenodd;stroke:none;stroke-width:0.264583px;stroke-linecap:butt;stroke-linejoin:miter;stroke-opacity:1"
         d="m -17.005391,245.04429 0.671446,-0.11334 1.269369,2.76702 -1.149127,0.7229 -0.943557,-3.25 z"
         id="path2593-56"
         sodipodi:nodetypes="cccccc" />
      <path
         style="fill:#d7022c;fill-opacity:1;fill-rule:evenodd;stroke:none;stroke-width:0.264583px;stroke-linecap:butt;stroke-linejoin:miter;stroke-opacity:1"
         d="m -15.547639,254.1138 -0.766385,-0.26033 -1.144876,5.0476 0.995934,-0.47717 1.294606,-4.48138 z"
         id="path2593-2"
         sodipodi:nodetypes="cccccc" />
      <path
         style="fill:#d7022c;fill-opacity:1;fill-rule:evenodd;stroke:none;stroke-width:0.264583px;stroke-linecap:butt;stroke-linejoin:miter;stroke-opacity:1"
         d="m -37.137503,265.08378 0.578189,1.5625 3.862238,0.7537 -0.309796,-0.64182 -3.278461,-0.97977 z"
         id="path2593-9"
         sodipodi:nodetypes="cccccc" />
      <path
         style="fill:#d7022c;fill-opacity:1;fill-rule:evenodd;stroke:none;stroke-width:0.264583px;stroke-linecap:butt;stroke-linejoin:miter;stroke-opacity:1"
         d="m -27.284445,267.18565 -0.309066,-0.4019 2.772667,-1.04584 0.393632,0.61369 -2.143236,0.57428 z"
         id="path2593-1"
         sodipodi:nodetypes="cccccc" />
    </g>
  </g>
</svg>
